<svg width="100" height="25" viewBox="0 0 100 25" fill="none" xmlns="http://www.w3.org/2000/svg">
<path d="M0 13.0013H13.4296V10.5572H3.02355V7.33211H9.02026V5.11484H3.02355V2.21727H13.3036V0H0V13.0013Z" fill="#323648"/>
<path d="M23.0516 13.0013H24.8406L31.0137 2.34325H28.3177L24.0595 10.0785L19.5494 2.34325H16.6014L23.0516 13.0013Z" fill="#323648"/>
<path d="M36.5779 2.34325H33.9827V10.4816C33.9827 10.9856 34.0247 11.3971 34.1087 11.7163C34.2094 12.0354 34.3606 12.2958 34.5622 12.4974C34.7806 12.6821 35.0661 12.8165 35.4189 12.9005C35.7884 12.9677 36.2335 13.0013 36.7543 13.0013H43.8092C44.3467 13.0013 44.7919 12.9677 45.1446 12.9005C45.4974 12.8165 45.7829 12.6821 46.0013 12.4974C46.2197 12.2958 46.3708 12.0354 46.4548 11.7163C46.5556 11.3971 46.606 10.9856 46.606 10.4816V2.34325H43.9856V11.0108H36.5779V2.34325Z" fill="#323648"/>
<path d="M51.3543 13.0013H62.3399V11.0108H53.9747V2.34325H51.3543V13.0013Z" fill="#323648"/>
<path d="M68.6833 8.71791L71.0769 4.28337L73.5713 8.71791H68.6833ZM63.644 13.0013H66.2392L67.5746 10.658H74.6296L75.965 13.0013H78.8877L72.4627 2.34325H69.9683L63.644 13.0013Z" fill="#323648"/>
<path d="M81.5456 13.0013H84.1156V8.96987H86.5596L91.0194 13.0013H94.7484L89.684 8.96987H91.1453C92.002 8.96987 92.6319 8.81869 93.0351 8.51634C93.4382 8.19719 93.6398 7.66806 93.6398 6.92897V4.40935C93.6398 3.65346 93.4382 3.12434 93.0351 2.82198C92.6319 2.50283 92.002 2.34325 91.1453 2.34325H81.5456V13.0013ZM90.0367 4.18258C90.423 4.18258 90.717 4.24137 90.9186 4.35895C91.1201 4.45974 91.2209 4.68651 91.2209 5.03925V6.27387C91.2209 6.62662 91.1201 6.86178 90.9186 6.97937C90.717 7.08015 90.423 7.13054 90.0367 7.13054H84.1156V4.18258H90.0367Z" fill="#323648"/>
<path d="M95.7237 0.463809H94.9093V0H97.1151V0.463809H96.3007V2.60026H95.7237V0.463809Z" fill="#323648"/>
<path d="M100 0V2.60026H99.496V1.17961L98.8971 2.60026H98.5282L97.9256 1.19787V2.60026H97.4253V0H97.8782L98.7181 1.91732L99.5508 0H100Z" fill="#323648"/>
<path d="M54.7862 19.6086C54.7862 20.1132 54.7077 20.5535 54.5506 20.9292C54.3936 21.2993 54.1721 21.6077 53.8861 21.8544C53.6001 22.0956 53.2581 22.2778 52.8599 22.4012C52.4618 22.5189 52.0244 22.5778 51.5477 22.5778C51.3122 22.5778 51.0514 22.5666 50.7655 22.5442C50.4851 22.5274 50.2299 22.4909 50 22.4348V16.7823C50.2299 16.7262 50.4851 16.6897 50.7655 16.6729C51.0514 16.6505 51.3122 16.6393 51.5477 16.6393C52.0244 16.6393 52.4618 16.701 52.8599 16.8243C53.2581 16.9421 53.6001 17.1243 53.8861 17.3711C54.1721 17.6122 54.3936 17.9206 54.5506 18.2964C54.7077 18.6665 54.7862 19.1039 54.7862 19.6086ZM51.615 21.8628C52.3889 21.8628 52.9665 21.6666 53.3478 21.274C53.7291 20.8759 53.9198 20.3207 53.9198 19.6086C53.9198 18.8964 53.7291 18.344 53.3478 17.9515C52.9665 17.5533 52.3889 17.3543 51.615 17.3543C51.3851 17.3543 51.2057 17.3571 51.0767 17.3627C50.9533 17.3683 50.8664 17.3739 50.8159 17.3795V21.8376C50.8664 21.8432 50.9533 21.8488 51.0767 21.8544C51.2057 21.86 51.3851 21.8628 51.615 21.8628Z" fill="#323648"/>
<path d="M56.7283 22.5274H55.946V18.1534H56.7283V22.5274ZM56.333 17.3627C56.1928 17.3627 56.0722 17.3178 55.9713 17.2281C55.8759 17.1328 55.8283 17.0066 55.8283 16.8496C55.8283 16.6926 55.8759 16.5692 55.9713 16.4795C56.0722 16.3841 56.1928 16.3365 56.333 16.3365C56.4732 16.3365 56.5909 16.3841 56.6863 16.4795C56.7872 16.5692 56.8377 16.6926 56.8377 16.8496C56.8377 17.0066 56.7872 17.1328 56.6863 17.2281C56.5909 17.3178 56.4732 17.3627 56.333 17.3627Z" fill="#323648"/>
<path d="M60.8157 22.09C60.7484 22.1348 60.6167 22.1937 60.4204 22.2666C60.2297 22.3339 60.0054 22.3675 59.7475 22.3675C59.4839 22.3675 59.2344 22.3255 58.9988 22.2414C58.7689 22.1573 58.567 22.0283 58.3932 21.8544C58.2194 21.675 58.082 21.4535 57.981 21.1899C57.8801 20.9264 57.8296 20.6123 57.8296 20.2478C57.8296 19.9282 57.8773 19.6366 57.9726 19.373C58.068 19.1039 58.2054 18.8739 58.3848 18.6833C58.5699 18.487 58.7942 18.3356 59.0577 18.2291C59.3213 18.1169 59.6185 18.0608 59.9493 18.0608C60.3138 18.0608 60.6307 18.0889 60.8999 18.1449C61.1746 18.1954 61.4045 18.2431 61.5896 18.2879V22.1909C61.5896 22.8638 61.4158 23.3517 61.0681 23.6545C60.7204 23.9573 60.1933 24.1087 59.4867 24.1087C59.2119 24.1087 58.9512 24.0863 58.7044 24.0414C58.4633 23.9966 58.253 23.9433 58.0736 23.8816L58.2166 23.2003C58.3736 23.262 58.5642 23.3152 58.7886 23.3601C59.0185 23.4106 59.2568 23.4358 59.5035 23.4358C59.969 23.4358 60.3026 23.3433 60.5045 23.1582C60.712 22.9732 60.8157 22.6788 60.8157 22.275V22.09ZM60.8073 18.8431C60.7288 18.8207 60.6223 18.801 60.4877 18.7842C60.3587 18.7618 60.1821 18.7506 59.9578 18.7506C59.5372 18.7506 59.2119 18.888 58.982 19.1627C58.7577 19.4375 58.6456 19.802 58.6456 20.2562C58.6456 20.5086 58.6764 20.7245 58.7381 20.9039C58.8054 21.0834 58.8923 21.232 58.9988 21.3497C59.111 21.4675 59.2372 21.5544 59.3774 21.6105C59.5232 21.6666 59.6718 21.6946 59.8232 21.6946C60.0307 21.6946 60.2213 21.6666 60.3952 21.6105C60.569 21.5488 60.7064 21.4787 60.8073 21.4002V18.8431Z" fill="#323648"/>
<path d="M63.7188 22.5274H62.9365V18.1534H63.7188V22.5274ZM63.3234 17.3627C63.1832 17.3627 63.0627 17.3178 62.9617 17.2281C62.8664 17.1328 62.8187 17.0066 62.8187 16.8496C62.8187 16.6926 62.8664 16.5692 62.9617 16.4795C63.0627 16.3841 63.1832 16.3365 63.3234 16.3365C63.4636 16.3365 63.5814 16.3841 63.6767 16.4795C63.7777 16.5692 63.8281 16.6926 63.8281 16.8496C63.8281 17.0066 63.7777 17.1328 63.6767 17.2281C63.5814 17.3178 63.4636 17.3627 63.3234 17.3627Z" fill="#323648"/>
<path d="M65.7958 18.1534H67.4529V18.8095H65.7958V20.8282C65.7958 21.0469 65.8127 21.2292 65.8463 21.375C65.8799 21.5152 65.9304 21.6273 65.9977 21.7114C66.065 21.7899 66.1491 21.846 66.2501 21.8797C66.351 21.9133 66.4688 21.9301 66.6033 21.9301C66.8389 21.9301 67.0267 21.9049 67.1669 21.8544C67.3127 21.7984 67.4137 21.7591 67.4697 21.7367L67.6211 22.3844C67.5426 22.4236 67.4052 22.4713 67.209 22.5274C67.0127 22.589 66.7884 22.6199 66.536 22.6199C66.2388 22.6199 65.9921 22.5834 65.7958 22.5105C65.6052 22.432 65.451 22.3171 65.3332 22.1657C65.2154 22.0143 65.1313 21.8292 65.0808 21.6105C65.036 21.3862 65.0136 21.1282 65.0136 20.8366V16.9337L65.7958 16.7991V18.1534Z" fill="#323648"/>
<path d="M69.9288 21.9638C70.1138 21.9638 70.2765 21.961 70.4167 21.9554C70.5625 21.9442 70.683 21.9273 70.7784 21.9049V20.6011C70.7223 20.5731 70.6298 20.5506 70.5008 20.5338C70.3774 20.5114 70.226 20.5002 70.0466 20.5002C69.9288 20.5002 69.8026 20.5086 69.668 20.5254C69.5391 20.5422 69.4185 20.5787 69.3063 20.6348C69.1998 20.6852 69.1101 20.7581 69.0372 20.8535C68.9643 20.9432 68.9278 21.0638 68.9278 21.2152C68.9278 21.4955 69.0175 21.6918 69.197 21.804C69.3764 21.9105 69.6204 21.9638 69.9288 21.9638ZM69.8615 18.044C70.1755 18.044 70.4391 18.0861 70.6522 18.1702C70.8709 18.2487 71.0447 18.3636 71.1737 18.5151C71.3083 18.6609 71.4036 18.8375 71.4597 19.045C71.5158 19.2469 71.5438 19.4712 71.5438 19.7179V22.4517C71.4765 22.4629 71.3812 22.4797 71.2578 22.5021C71.1401 22.5189 71.0055 22.5358 70.8541 22.5526C70.7027 22.5694 70.5372 22.5834 70.3578 22.5947C70.1839 22.6115 70.0101 22.6199 69.8363 22.6199C69.5895 22.6199 69.3624 22.5947 69.1549 22.5442C68.9474 22.4937 68.768 22.4152 68.6166 22.3087C68.4652 22.1965 68.3474 22.0507 68.2633 21.8713C68.1792 21.6918 68.1371 21.4759 68.1371 21.2236C68.1371 20.9824 68.1848 20.775 68.2801 20.6011C68.3811 20.4273 68.5157 20.2871 68.6839 20.1805C68.8521 20.074 69.0484 19.9955 69.2727 19.945C69.497 19.8945 69.7325 19.8693 69.9793 19.8693C70.0578 19.8693 70.1391 19.8749 70.2232 19.8861C70.3073 19.8917 70.3858 19.903 70.4587 19.9198C70.5372 19.931 70.6045 19.9422 70.6606 19.9534C70.7167 19.9646 70.7559 19.9731 70.7784 19.9787V19.76C70.7784 19.631 70.7643 19.5048 70.7363 19.3814C70.7083 19.2525 70.6578 19.1403 70.5849 19.045C70.512 18.944 70.4111 18.8655 70.2821 18.8095C70.1587 18.7478 69.9961 18.7169 69.7942 18.7169C69.5363 18.7169 69.3091 18.7366 69.1129 18.7758C68.9222 18.8095 68.7792 18.8459 68.6839 18.8852L68.5914 18.2375C68.6923 18.1926 68.8605 18.1506 69.096 18.1113C69.3316 18.0664 69.5867 18.044 69.8615 18.044Z" fill="#323648"/>
<path d="M74.1553 22.6115C73.673 22.6003 73.3309 22.4965 73.1291 22.3002C72.9272 22.104 72.8262 21.7984 72.8262 21.3834V16.1346L73.6085 16V21.2572C73.6085 21.3862 73.6197 21.4927 73.6422 21.5769C73.6646 21.661 73.701 21.7283 73.7515 21.7787C73.802 21.8292 73.8693 21.8685 73.9534 21.8965C74.0375 21.9189 74.1412 21.9386 74.2646 21.9554L74.1553 22.6115Z" fill="#323648"/>
<path d="M78.1077 21.9638C78.4273 21.9638 78.6629 21.9217 78.8143 21.8376C78.9713 21.7535 79.0498 21.6189 79.0498 21.4339C79.0498 21.2432 78.9741 21.0918 78.8227 20.9796C78.6713 20.8675 78.4217 20.7413 78.0741 20.6011C77.9058 20.5338 77.7432 20.4665 77.5862 20.3992C77.4348 20.3263 77.303 20.2422 77.1908 20.1469C77.0787 20.0516 76.989 19.9366 76.9217 19.802C76.8544 19.6674 76.8207 19.502 76.8207 19.3057C76.8207 18.9188 76.9637 18.6132 77.2497 18.3889C77.5357 18.159 77.9255 18.044 78.4189 18.044C78.5423 18.044 78.6657 18.0524 78.789 18.0692C78.9124 18.0805 79.0274 18.0973 79.1339 18.1197C79.2405 18.1365 79.333 18.1562 79.4115 18.1786C79.4956 18.201 79.5601 18.2206 79.605 18.2375L79.462 18.9104C79.3778 18.8655 79.2461 18.8207 79.0666 18.7758C78.8872 18.7253 78.6713 18.7001 78.4189 18.7001C78.2002 18.7001 78.0096 18.745 77.8469 18.8347C77.6843 18.9188 77.603 19.0534 77.603 19.2384C77.603 19.3338 77.6198 19.4179 77.6535 19.4908C77.6927 19.5637 77.7488 19.631 77.8217 19.6927C77.9002 19.7487 77.9955 19.802 78.1077 19.8525C78.2199 19.903 78.3544 19.9562 78.5115 20.0123C78.7189 20.0908 78.904 20.1693 79.0666 20.2478C79.2292 20.3207 79.3666 20.4076 79.4788 20.5086C79.5965 20.6095 79.6863 20.7329 79.748 20.8787C79.8096 21.0189 79.8405 21.1927 79.8405 21.4002C79.8405 21.804 79.6891 22.1096 79.3863 22.3171C79.089 22.5246 78.6629 22.6283 78.1077 22.6283C77.7208 22.6283 77.418 22.5947 77.1993 22.5274C76.9806 22.4657 76.8319 22.418 76.7534 22.3844L76.8964 21.7114C76.9862 21.7451 77.1292 21.7956 77.3254 21.8628C77.5217 21.9301 77.7825 21.9638 78.1077 21.9638Z" fill="#323648"/>
<path d="M81.5757 18.1534H83.2328V18.8095H81.5757V20.8282C81.5757 21.0469 81.5925 21.2292 81.6262 21.375C81.6598 21.5152 81.7103 21.6273 81.7776 21.7114C81.8449 21.7899 81.929 21.846 82.0299 21.8797C82.1309 21.9133 82.2486 21.9301 82.3832 21.9301C82.6187 21.9301 82.8066 21.9049 82.9468 21.8544C83.0926 21.7984 83.1935 21.7591 83.2496 21.7367L83.401 22.3844C83.3225 22.4236 83.1851 22.4713 82.9888 22.5274C82.7926 22.589 82.5683 22.6199 82.3159 22.6199C82.0187 22.6199 81.772 22.5834 81.5757 22.5105C81.385 22.432 81.2308 22.3171 81.1131 22.1657C80.9953 22.0143 80.9112 21.8292 80.8607 21.6105C80.8158 21.3862 80.7934 21.1282 80.7934 20.8366V16.9337L81.5757 16.7991V18.1534Z" fill="#323648"/>
<path d="M87.7106 22.4012C87.5312 22.446 87.2928 22.4937 86.9956 22.5442C86.704 22.5947 86.3648 22.6199 85.9778 22.6199C85.6414 22.6199 85.3582 22.5722 85.1283 22.4769C84.8983 22.376 84.7133 22.2358 84.5731 22.0563C84.4329 21.8769 84.332 21.6666 84.2703 21.4254C84.2086 21.1787 84.1777 20.9067 84.1777 20.6095V18.1534H84.96V20.4413C84.96 20.974 85.0441 21.3554 85.2124 21.5853C85.3806 21.8152 85.6638 21.9301 86.0619 21.9301C86.1461 21.9301 86.233 21.9273 86.3227 21.9217C86.4124 21.9161 86.4965 21.9105 86.575 21.9049C86.6535 21.8937 86.7236 21.8853 86.7853 21.8797C86.8526 21.8685 86.9003 21.8572 86.9283 21.846V18.1534H87.7106V22.4012Z" fill="#323648"/>
<path d="M91.8846 19.0786C91.7892 19.0001 91.6518 18.9244 91.4724 18.8515C91.293 18.7786 91.0967 18.7422 90.8836 18.7422C90.6593 18.7422 90.4658 18.7842 90.3032 18.8683C90.1462 18.9468 90.0172 19.059 89.9163 19.2048C89.8153 19.345 89.7424 19.5132 89.6976 19.7095C89.6527 19.9058 89.6303 20.116 89.6303 20.3404C89.6303 20.8507 89.7564 21.246 90.0088 21.5264C90.2611 21.8012 90.5976 21.9386 91.0182 21.9386C91.2313 21.9386 91.4079 21.9301 91.5481 21.9133C91.6939 21.8909 91.8061 21.8685 91.8846 21.846V19.0786ZM91.8846 16.1346L92.6668 16V22.4012C92.4874 22.4517 92.2575 22.5021 91.9771 22.5526C91.6967 22.6031 91.3743 22.6283 91.0098 22.6283C90.6733 22.6283 90.3705 22.575 90.1013 22.4685C89.8321 22.3619 89.6022 22.2105 89.4116 22.0143C89.2209 21.818 89.0723 21.5797 88.9658 21.2993C88.8648 21.0133 88.8144 20.6936 88.8144 20.3404C88.8144 20.0039 88.8564 19.6955 88.9405 19.4151C89.0302 19.1347 89.1592 18.8936 89.3275 18.6917C89.4957 18.4898 89.7004 18.3328 89.9415 18.2206C90.1882 18.1085 90.4686 18.0524 90.7827 18.0524C91.035 18.0524 91.2565 18.0861 91.4472 18.1534C91.6434 18.2206 91.7892 18.2851 91.8846 18.3468V16.1346Z" fill="#323648"/>
<path d="M94.7938 22.5274H94.0116V18.1534H94.7938V22.5274ZM94.3985 17.3627C94.2583 17.3627 94.1377 17.3178 94.0368 17.2281C93.9415 17.1328 93.8938 17.0066 93.8938 16.8496C93.8938 16.6926 93.9415 16.5692 94.0368 16.4795C94.1377 16.3841 94.2583 16.3365 94.3985 16.3365C94.5387 16.3365 94.6565 16.3841 94.7518 16.4795C94.8527 16.5692 94.9032 16.6926 94.9032 16.8496C94.9032 17.0066 94.8527 17.1328 94.7518 17.2281C94.6565 17.3178 94.5387 17.3627 94.3985 17.3627Z" fill="#323648"/>
<path d="M100 20.3404C100 20.688 99.9495 21.0021 99.8486 21.2825C99.7477 21.5628 99.6047 21.804 99.4196 22.0058C99.2402 22.2077 99.0243 22.3647 98.7719 22.4769C98.5196 22.5834 98.2448 22.6367 97.9476 22.6367C97.6504 22.6367 97.3756 22.5834 97.1233 22.4769C96.8709 22.3647 96.6522 22.2077 96.4672 22.0058C96.2877 21.804 96.1475 21.5628 96.0466 21.2825C95.9456 21.0021 95.8952 20.688 95.8952 20.3404C95.8952 19.9983 95.9456 19.6871 96.0466 19.4067C96.1475 19.1207 96.2877 18.8767 96.4672 18.6749C96.6522 18.473 96.8709 18.3188 97.1233 18.2122C97.3756 18.1001 97.6504 18.044 97.9476 18.044C98.2448 18.044 98.5196 18.1001 98.7719 18.2122C99.0243 18.3188 99.2402 18.473 99.4196 18.6749C99.6047 18.8767 99.7477 19.1207 99.8486 19.4067C99.9495 19.6871 100 19.9983 100 20.3404ZM99.1841 20.3404C99.1841 19.8469 99.0719 19.4571 98.8476 19.1712C98.6289 18.8796 98.3289 18.7338 97.9476 18.7338C97.5663 18.7338 97.2634 18.8796 97.0391 19.1712C96.8204 19.4571 96.7111 19.8469 96.7111 20.3404C96.7111 20.8338 96.8204 21.2264 97.0391 21.518C97.2634 21.804 97.5663 21.947 97.9476 21.947C98.3289 21.947 98.6289 21.804 98.8476 21.518C99.0719 21.2264 99.1841 20.8338 99.1841 20.3404Z" fill="#323648"/>
</svg>
