<svg width="47" height="11" viewBox="0 0 47 11" fill="none" xmlns="http://www.w3.org/2000/svg">
<path d="M0 9.88731C0 10.0095 0.08726 10.0967 0.209424 10.0967H6.68412C6.80628 10.0967 6.89354 10.0095 6.89354 9.88731V8.5086C6.89354 8.38644 6.80628 8.29918 6.68412 8.29918H1.97208V6.15258H5.70681C5.82897 6.15258 5.91623 6.06532 5.91623 5.94316V4.61681C5.91623 4.49464 5.82897 4.40738 5.70681 4.40738H1.97208V1.98155H6.68412C6.80628 1.98155 6.89354 1.89429 6.89354 1.77213V0.393422C6.89354 0.271258 6.80628 0.183998 6.68412 0.183998H0.209424C0.08726 0.183998 0 0.271258 0 0.393422V9.88731Z" fill="white"/>
<path d="M11.4619 10.184C11.5666 10.184 11.6539 10.1316 11.7237 10.0618L14.9872 3.32536C14.9872 3.2032 14.8999 3.11594 14.7778 3.11594H13.1198C12.9802 3.11594 12.8929 3.22065 12.8406 3.32536L11.4619 6.44927L10.0832 3.32536C10.0308 3.22065 9.94355 3.11594 9.80394 3.11594H8.146C8.02383 3.11594 7.93657 3.2032 7.93657 3.32536L11.2001 10.0618C11.2699 10.1316 11.3572 10.184 11.4619 10.184Z" fill="white"/>
<path d="M21.385 9.88731C21.4373 10.0269 21.5071 10.0967 21.6293 10.0967H22.6066C22.7288 10.0967 22.816 10.0095 22.816 9.88731V3.32536C22.816 3.2032 22.7288 3.11594 22.6066 3.11594H21.0534C20.9312 3.11594 20.844 3.2032 20.844 3.32536V6.86812C20.844 7.72326 20.4775 8.4388 19.6049 8.4388C18.3658 8.4388 18.2611 7.72326 18.2611 6.86812V3.32536C18.2611 3.2032 18.1738 3.11594 18.0516 3.11594H16.4984C16.3763 3.11594 16.289 3.2032 16.289 3.32536V7.06009C16.289 8.71803 17.1616 10.184 19.1337 10.184C19.8143 10.184 20.4949 10.0793 21.3152 9.3114L21.385 9.88731Z" fill="white"/>
<path d="M27.2298 0.393422C27.2298 0.271258 27.1425 0.183998 27.0203 0.183998H25.4671C25.3449 0.183998 25.2577 0.271258 25.2577 0.393422V9.88731C25.2577 10.0095 25.3449 10.0967 25.4671 10.0967H27.0203C27.1425 10.0967 27.2298 10.0095 27.2298 9.88731V0.393422Z" fill="white"/>
<path d="M32.1326 8.56096C31.3821 8.56096 30.9284 8.33409 30.9284 7.79307C30.9284 7.42658 31.3123 7.18225 32.1849 7.18225C32.883 7.18225 33.0575 7.39168 33.2146 7.63601V8.15956C32.883 8.50861 32.2547 8.56096 32.1326 8.56096ZM33.6334 9.88731C33.6858 10.0269 33.7905 10.0967 33.9127 10.0967H34.9772C35.0994 10.0967 35.1867 10.0095 35.1867 9.88731V6.18749C35.1867 4.23286 34.1919 3.02867 31.9231 3.02867C31.26 3.02867 30.5619 3.11594 29.602 3.51733C29.5671 3.56969 29.5671 3.62204 29.5671 3.6744C29.5671 3.74421 29.5846 3.77911 29.6195 3.86637L30.0383 4.89604C30.0907 5.0182 30.1779 5.03566 30.2128 5.03566C30.2303 5.03566 30.2652 5.03566 30.2826 5.0182C30.7887 4.82623 31.609 4.82623 31.8184 4.82623C32.8306 4.82623 33.1971 5.19272 33.1971 6.10023C32.8306 5.83845 32.2198 5.71628 31.609 5.71628C30.1605 5.71628 29.1483 6.41436 29.1483 7.93269C29.1483 9.95712 30.876 10.184 31.6439 10.184C31.8359 10.184 32.9877 10.184 33.5462 9.3463L33.6334 9.88731Z" fill="white"/>
<path d="M41.5247 4.82623C41.6469 4.82623 41.7342 4.73897 41.7342 4.61681V3.2381C41.7342 3.11594 41.6469 3.02867 41.5247 3.02867H41.0012C40.3904 3.06358 39.7795 3.22065 39.0465 3.90128L38.9418 3.32536C38.8895 3.18574 38.8197 3.11594 38.6975 3.11594H37.7551C37.6329 3.11594 37.5457 3.2032 37.5457 3.32536V9.88731C37.5457 10.0095 37.6329 10.0967 37.7551 10.0967H39.3083C39.4305 10.0967 39.5178 10.0095 39.5178 9.88731V6.39691C39.5178 5.59412 39.7621 4.89604 41.0012 4.82623H41.5247Z" fill="white"/>
<path d="M42.7864 0.356742H42.16V0H43.8566V0.356742H43.2302V2H42.7864V0.356742Z" fill="white"/>
<path d="M46.0755 0V2H45.6879V0.907303L45.2272 2H44.9435L44.48 0.921348V2H44.0952V0H44.4435L45.0896 1.47472L45.73 0H46.0755Z" fill="white"/>
</svg>
